<svg xmlns="http://www.w3.org/2000/svg" xmlns:xlink="http://www.w3.org/1999/xlink" width="1024" zoomAndPan="magnify" viewBox="0 0 768 767.999994" height="1024" preserveAspectRatio="xMidYMid meet" version="1.0"><rect x="-76.8" width="921.6" fill="#ffffff" y="-76.799999" height="921.599993" fill-opacity="1"/><rect x="-76.8" width="921.6" fill="#c2dcff" y="-76.799999" height="921.599993" fill-opacity="1"/><path fill="#ffd6d6" d="M 600.613281 469.097656 C 600.621094 469.003906 600.621094 468.910156 600.613281 468.816406 C 600.613281 468.035156 600.839844 467.253906 600.941406 466.46875 L 600.941406 465.914062 C 609.703125 403.136719 616.089844 340.03125 620.738281 276.824219 C 624.398438 227.328125 637.328125 160.03125 594.980469 122.785156 C 558.238281 90.488281 500.234375 89.527344 454.222656 85.738281 C 394.878906 80.890625 333.894531 78.164062 274.550781 84.375 C 228.746094 89.199219 177.558594 101.722656 142.203125 133.265625 C 118.441406 154.476562 112.40625 185.636719 113.46875 213.84375 C 115.109375 238.515625 122.027344 264.046875 127.609375 287.582031 C 141.78125 347.683594 160.195312 406.453125 182.859375 463.894531 C 193.078125 489.601562 205.964844 513.894531 221.523438 536.773438 C 227.582031 545.738281 242.457031 557.757812 248.136719 563.035156 C 258.441406 570.996094 269.382812 577.945312 280.964844 583.894531 C 338.238281 613.691406 404.5 627.429688 468.871094 625.558594 C 494.652344 624.800781 521.75 622.65625 545.359375 611.445312 C 559.097656 604.929688 576.140625 592.328125 582.882812 577.378906 C 606.34375 609.675781 630.382812 650.054688 607.707031 689.042969 C 607.378906 689.601562 610.535156 687.757812 611.496094 686.519531 C 657.203125 626.972656 638.488281 537.023438 598.566406 478.742188 Z M 600.613281 469.097656 " fill-opacity="1" fill-rule="nonzero"/><path fill="#ff9999" d="M 599.777344 478.84375 L 601.140625 470.28125 C 601.140625 470.28125 601.140625 470.105469 601.140625 470.003906 L 601.445312 467.632812 L 601.445312 467.050781 C 610.257812 403.917969 616.597656 340.359375 621.34375 276.75 C 625.03125 226.925781 638.035156 159.199219 595.410156 121.75 C 558.464844 89.25 500.082031 88.265625 453.769531 84.476562 C 394.046875 79.578125 332.683594 76.902344 272.9375 83.085938 C 226.953125 87.960938 175.539062 100.5625 139.855469 132.304688 C 115.941406 153.644531 109.882812 185.109375 110.941406 213.414062 C 112.609375 238.265625 119.554688 263.921875 125.160156 287.605469 C 139.410156 348.101562 157.925781 407.257812 180.714844 465.082031 C 191.003906 490.910156 203.964844 515.320312 219.601562 538.3125 C 225.714844 547.351562 240.6875 559.421875 246.394531 564.726562 C 256.738281 572.742188 267.734375 579.738281 279.375 585.710938 C 337.152344 615.8125 403.742188 629.601562 468.464844 627.730469 C 494.398438 626.972656 521.671875 624.828125 545.433594 613.539062 C 559.246094 606.972656 576.394531 595.359375 583.160156 580.308594 C 606.773438 612.832031 628.617188 651.417969 605.890625 690.636719 C 605.5625 691.191406 611.167969 690.332031 612.125 689.09375 C 658.058594 629.144531 640.003906 537.480469 599.777344 478.84375 Z M 595.8125 587.152344 C 592.328125 582.882812 589.019531 578.488281 585.535156 574.246094 C 583.011719 571.722656 580.28125 569.449219 577.53125 567.125 C 577.027344 566.847656 576.546875 566.519531 576.015625 566.265625 L 575.15625 566.265625 L 573.996094 566.519531 C 573.539062 566.875 573.261719 567.25 573.3125 567.605469 C 577.175781 599.851562 533.289062 618.109375 508.871094 620.964844 C 479.964844 624.214844 451.074219 624.074219 422.203125 620.535156 C 373.0625 614.726562 322.835938 600.179688 280.03125 574.902344 C 234.125 547.832031 210.640625 504.980469 191.800781 456.746094 C 171.914062 405.757812 155.316406 353.722656 142.003906 300.636719 C 135.589844 275.03125 129.375 249.121094 125.210938 223.035156 C 121.042969 196.949219 120.839844 170.007812 135.839844 147.507812 C 167.960938 99.125 235.589844 88.566406 288.972656 85.738281 C 345.550781 83.1875 402.015625 84.769531 458.363281 90.488281 C 501.292969 94.527344 554.675781 97.101562 587.152344 129.730469 C 625.609375 168.414062 612.402344 234.804688 608.792969 283.441406 C 604.046875 347.175781 597.582031 410.8125 588.589844 474.121094 C 626.46875 524.800781 647.582031 604.5 620.660156 665.28125 C 625.410156 637.832031 612.074219 611.117188 595.8125 587.152344 Z M 595.8125 587.152344 " fill-opacity="1" fill-rule="nonzero"/><path fill="#ffadad" d="M 254.359375 394.695312 C 253.382812 393.652344 252.433594 392.585938 251.511719 391.492188 C 250.59375 390.402344 249.703125 389.285156 248.839844 388.148438 C 247.976562 387.007812 247.148438 385.847656 246.34375 384.664062 C 245.542969 383.480469 244.773438 382.28125 244.039062 381.058594 C 243.300781 379.832031 242.59375 378.59375 241.921875 377.332031 C 241.25 376.074219 240.609375 374.796875 240.003906 373.503906 C 239.398438 372.210938 238.824219 370.902344 238.289062 369.578125 C 237.75 368.253906 237.25 366.917969 236.78125 365.566406 C 236.316406 364.21875 235.882812 362.859375 235.488281 361.484375 C 235.09375 360.113281 234.734375 358.730469 234.410156 357.339844 C 234.085938 355.949219 233.800781 354.550781 233.550781 353.144531 C 233.300781 351.738281 233.085938 350.324219 232.910156 348.910156 C 232.734375 347.492188 232.597656 346.070312 232.496094 344.644531 C 232.394531 343.21875 232.332031 341.792969 232.304688 340.367188 C 232.277344 338.9375 232.289062 337.511719 232.339844 336.082031 C 232.386719 334.65625 232.472656 333.230469 232.597656 331.808594 C 232.71875 330.386719 232.878906 328.964844 233.078125 327.550781 C 233.273438 326.136719 233.511719 324.730469 233.78125 323.328125 C 234.054688 321.925781 234.359375 320.53125 234.707031 319.144531 C 235.050781 317.757812 235.429688 316.382812 235.847656 315.015625 C 236.265625 313.648438 236.71875 312.296875 237.207031 310.953125 C 237.695312 309.613281 238.214844 308.28125 238.773438 306.96875 C 239.332031 305.652344 239.921875 304.355469 240.550781 303.070312 C 241.175781 301.785156 241.835938 300.519531 242.527344 299.269531 C 243.21875 298.019531 243.945312 296.792969 244.699219 295.578125 C 245.457031 294.367188 246.246094 293.179688 247.066406 292.007812 C 247.882812 290.839844 248.734375 289.691406 249.613281 288.566406 C 250.492188 287.441406 251.402344 286.339844 252.335938 285.261719 C 253.273438 284.183594 254.238281 283.128906 255.234375 282.105469 C 256.226562 281.078125 257.242188 280.078125 258.289062 279.101562 C 259.332031 278.128906 260.402344 277.183594 261.496094 276.265625 C 262.59375 275.347656 263.710938 274.460938 264.851562 273.601562 C 265.992188 272.742188 267.15625 271.914062 268.339844 271.117188 C 269.523438 270.320312 270.730469 269.550781 271.953125 268.816406 C 273.179688 268.082031 274.421875 267.382812 275.683594 266.710938 C 276.945312 266.042969 278.222656 265.40625 279.519531 264.804688 C 280.8125 264.203125 282.125 263.632812 283.449219 263.101562 C 284.773438 262.566406 286.109375 262.066406 287.460938 261.605469 C 288.8125 261.140625 290.175781 260.714844 291.546875 260.320312 C 292.921875 259.929688 294.304688 259.574219 295.695312 259.253906 C 297.089844 258.933594 298.488281 258.652344 299.894531 258.40625 C 301.300781 258.160156 302.714844 257.949219 304.132812 257.777344 C 305.550781 257.605469 306.972656 257.472656 308.398438 257.375 C 309.820312 257.277344 311.246094 257.21875 312.675781 257.195312 C 314.105469 257.171875 315.53125 257.1875 316.960938 257.238281 C 318.386719 257.292969 319.8125 257.382812 321.234375 257.507812 C 322.65625 257.636719 324.074219 257.800781 325.488281 258.003906 C 326.902344 258.203125 328.308594 258.441406 329.710938 258.71875 C 331.113281 258.992188 332.507812 259.304688 333.890625 259.652344 C 335.277344 260.003906 336.652344 260.386719 338.015625 260.808594 C 339.382812 261.226562 340.734375 261.683594 342.074219 262.175781 C 343.417969 262.667969 344.742188 263.195312 346.058594 263.753906 C 347.371094 264.316406 348.667969 264.910156 349.949219 265.539062 C 351.230469 266.167969 352.496094 266.832031 353.746094 267.527344 C 354.992188 268.222656 356.21875 268.953125 357.429688 269.710938 C 358.636719 270.472656 359.828125 271.261719 360.996094 272.085938 C 362.160156 272.90625 363.308594 273.761719 364.429688 274.640625 C 365.554688 275.523438 366.652344 276.4375 367.726562 277.375 C 368.800781 278.316406 369.851562 279.285156 370.875 280.28125 C 371.902344 281.273438 372.898438 282.296875 373.871094 283.34375 C 374.839844 284.390625 375.78125 285.464844 376.699219 286.5625 C 377.613281 287.65625 378.496094 288.777344 379.351562 289.921875 C 380.207031 291.066406 381.035156 292.230469 381.828125 293.417969 C 382.625 294.605469 383.386719 295.808594 384.117188 297.039062 C 384.890625 295.742188 385.695312 294.464844 386.539062 293.214844 C 387.382812 291.960938 388.257812 290.734375 389.167969 289.53125 C 390.078125 288.328125 391.023438 287.148438 392 286 C 392.972656 284.847656 393.980469 283.722656 395.019531 282.628906 C 396.058594 281.535156 397.125 280.46875 398.222656 279.433594 C 399.320312 278.394531 400.445312 277.390625 401.597656 276.417969 C 402.75 275.441406 403.929688 274.5 405.132812 273.59375 C 406.339844 272.683594 407.566406 271.808594 408.820312 270.96875 C 410.074219 270.128906 411.351562 269.324219 412.648438 268.554688 C 413.945312 267.785156 415.265625 267.050781 416.601562 266.355469 C 417.941406 265.660156 419.300781 265 420.675781 264.378906 C 422.050781 263.757812 423.441406 263.175781 424.847656 262.628906 C 426.253906 262.085938 427.675781 261.582031 429.113281 261.113281 C 430.546875 260.648438 431.996094 260.222656 433.453125 259.839844 C 434.914062 259.453125 436.382812 259.109375 437.859375 258.804688 C 439.339844 258.5 440.824219 258.238281 442.316406 258.015625 C 443.808594 257.796875 445.308594 257.617188 446.808594 257.476562 C 448.3125 257.339844 449.820312 257.242188 451.328125 257.1875 C 452.835938 257.132812 454.34375 257.117188 455.851562 257.144531 C 457.359375 257.175781 458.867188 257.246094 460.371094 257.355469 C 461.878906 257.46875 463.378906 257.621094 464.875 257.816406 C 466.371094 258.011719 467.859375 258.25 469.34375 258.527344 C 470.828125 258.804688 472.300781 259.125 473.769531 259.484375 C 475.234375 259.84375 476.6875 260.242188 478.132812 260.683594 C 479.574219 261.121094 481.003906 261.601562 482.421875 262.121094 C 483.839844 262.640625 485.242188 263.199219 486.625 263.796875 C 488.011719 264.394531 489.378906 265.027344 490.730469 265.703125 C 492.082031 266.375 493.414062 267.082031 494.726562 267.832031 C 496.035156 268.578125 497.324219 269.359375 498.59375 270.175781 C 499.863281 270.996094 501.105469 271.847656 502.328125 272.734375 C 503.546875 273.621094 504.742188 274.542969 505.914062 275.496094 C 507.082031 276.449219 508.226562 277.433594 509.339844 278.453125 C 510.457031 279.46875 511.542969 280.515625 512.601562 281.589844 C 513.65625 282.667969 514.683594 283.773438 515.679688 284.90625 C 516.675781 286.042969 517.640625 287.203125 518.570312 288.390625 C 519.503906 289.578125 520.402344 290.789062 521.265625 292.027344 C 522.128906 293.261719 522.957031 294.523438 523.753906 295.804688 C 524.546875 297.089844 525.308594 298.390625 526.027344 299.71875 C 526.75 301.042969 527.4375 302.386719 528.085938 303.75 C 528.730469 305.113281 529.34375 306.492188 529.914062 307.886719 C 530.484375 309.285156 531.015625 310.695312 531.511719 312.125 C 532.003906 313.550781 532.457031 314.988281 532.871094 316.441406 C 533.285156 317.890625 533.65625 319.351562 533.988281 320.824219 C 534.320312 322.296875 534.613281 323.777344 534.863281 325.265625 C 535.113281 326.753906 535.320312 328.246094 535.488281 329.746094 C 535.65625 331.246094 535.78125 332.75 535.867188 334.257812 C 535.953125 335.761719 535.992188 337.269531 535.996094 338.78125 C 535.996094 340.289062 535.953125 341.796875 535.871094 343.304688 C 535.789062 344.8125 535.664062 346.316406 535.496094 347.816406 C 535.332031 349.3125 535.125 350.808594 534.875 352.296875 C 534.625 353.785156 534.335938 355.265625 534.003906 356.738281 C 533.671875 358.210938 533.300781 359.671875 532.890625 361.125 C 532.476562 362.574219 532.027344 364.015625 531.535156 365.441406 C 531.042969 366.867188 530.511719 368.28125 529.941406 369.679688 C 529.371094 371.074219 528.761719 372.457031 528.117188 373.820312 C 527.46875 375.183594 526.785156 376.527344 526.0625 377.851562 C 525.34375 379.179688 524.585938 380.484375 523.792969 381.765625 C 523 383.050781 522.171875 384.3125 521.308594 385.546875 C 520.441406 386.785156 519.546875 388 518.617188 389.1875 C 517.683594 390.375 516.722656 391.535156 515.726562 392.671875 C 514.734375 393.804688 513.707031 394.914062 512.652344 395.988281 C 511.59375 397.066406 510.507812 398.117188 509.394531 399.132812 C 508.28125 400.152344 507.140625 401.136719 505.96875 402.089844 C 504.800781 403.046875 503.605469 403.96875 502.386719 404.855469 L 384.117188 507.9375 L 266.5625 405.328125 Z M 254.359375 394.695312 " fill-opacity="1" fill-rule="nonzero"/></svg>